<?xml version="1.0" encoding="utf-8"?>
<!-- Generator: Adobe Illustrator 21.0.0, SVG Export Plug-In . SVG Version: 6.00 Build 0)  -->
<svg version="1.1" xmlns="http://www.w3.org/2000/svg" xmlns:xlink="http://www.w3.org/1999/xlink" x="0px" y="0px"
	 viewBox="0 0 42.5 42.5" style="enable-background:new 0 0 42.5 42.5;" xml:space="preserve">
<style type="text/css">
	.st0{display:none;}
	.st1{display:inline;fill:none;}
	.st2{display:inline;}
	.st3{clip-path:url(#SVGID_2_);fill:#FF7352;}
	.st4{clip-path:url(#XMLID_4_);}
	.st5{display:inline;fill:#859293;}
	.st6{fill:none;stroke:#5DE86D;stroke-width:0.25;stroke-miterlimit:10;stroke-dasharray:6;}
	.st7{fill:none;stroke:#91C6E5;stroke-width:0.25;stroke-miterlimit:10;stroke-dasharray:10;}
</style>
<g id="Layer_1" class="st0">
</g>
<g id="Layer_2" class="st0">
</g>
<g id="Layer_5" class="st0">
	<circle id="XMLID_1_" class="st1" cx="21.2" cy="21.2" r="20.4"/>
	<g class="st2">
		<defs>
			<rect id="SVGID_1_" width="42.5" height="42.5"/>
		</defs>
		<clipPath id="SVGID_2_">
			<use xlink:href="#SVGID_1_"  style="overflow:visible;"/>
		</clipPath>
		<path class="st3" d="M41.6,21.3c0,11.2-9.1,20.4-20.4,20.4S0.9,32.5,0.9,21.3S10,0.9,21.3,0.9c7.4,0,14.3,4.3,17.8,10.4
			C39.7,12.5,41.6,16.3,41.6,21.3z"/>
	</g>
	<g class="st2">
		<defs>
			<circle id="XMLID_2_" cx="21.3" cy="21.2" r="20.4"/>
		</defs>
		<clipPath id="XMLID_4_">
			<use xlink:href="#XMLID_2_"  style="overflow:visible;"/>
		</clipPath>
		<g class="st4">
			
				<image style="overflow:visible;" width="110" height="112" xlink:href="1ADABD5027FD208.png"  transform="matrix(1 0 0 1 -31 -37)">
			</image>
		</g>
		<g class="st4">
			
				<image style="overflow:visible;" width="101" height="86" xlink:href="1ADABD5027FD209.png"  transform="matrix(1 0 0 1 -21 -37)">
			</image>
		</g>
		<g class="st4">
			
				<image style="overflow:visible;" width="77" height="80" xlink:href="1ADABD5027FD20F.png"  transform="matrix(1 0 0 1 -26 -37)">
			</image>
		</g>
		<g class="st4">
			
				<image style="overflow:visible;" width="83" height="89" xlink:href="1ADABD5027FD20A.png"  transform="matrix(1 0 0 1 -32 -29)">
			</image>
		</g>
		<g class="st4">
			
				<image style="overflow:visible;" width="102" height="87" xlink:href="1ADABD5027FD20B.png"  transform="matrix(1 0 0 1 -23 -27)">
			</image>
		</g>
		<g class="st4">
			
				<image style="overflow:visible;" width="93" height="91" xlink:href="1ADABD5027FD206.png"  transform="matrix(1 0 0 1 -24 -11)">
			</image>
		</g>
		<g class="st4">
			
				<image style="overflow:visible;" width="88" height="86" xlink:href="1ADABD5027FD207.png"  transform="matrix(1 0 0 1 -38 -19)">
			</image>
		</g>
	</g>
</g>
<g id="Layer_3" class="st0">
</g>
<g id="Layer_4" class="st0">
</g>
<g id="Layer_7" class="st0">
	<circle class="st5" cx="21.3" cy="21.2" r="20.4"/>
</g>
<g id="Layer_6" class="st0">
	<g class="st2">
		<image style="overflow:visible;" width="75" height="74" xlink:href="1ADABD5027FD218.png"  transform="matrix(1 0 0 1 -17 -27)">
		</image>
	</g>
	<g class="st2">
		<image style="overflow:visible;" width="74" height="74" xlink:href="1ADABD5027FD21B.png"  transform="matrix(1 0 0 1 -15 -26)">
		</image>
	</g>
	<g class="st2">
		
			<image style="overflow:visible;" width="74" height="74" xlink:href="3E19D5C95C795B77.png"  transform="matrix(1 0 0 1 -16 -23)">
		</image>
	</g>
	<g class="st2">
		
			<image style="overflow:visible;" width="74" height="74" xlink:href="3E19D5C95C795B75.png"  transform="matrix(1 0 0 1 -17 -24)">
		</image>
	</g>
	<g class="st2">
		
			<image style="overflow:visible;" width="74" height="74" xlink:href="3E19D5C95C795B73.png"  transform="matrix(1 0 0 1 -16 -21)">
		</image>
	</g>
	<g class="st2">
		
			<image style="overflow:visible;" width="74" height="74" xlink:href="3E19D5C95C795B8D.png"  transform="matrix(1 0 0 1 -23 -23)">
		</image>
	</g>
	<g class="st2">
		
			<image style="overflow:visible;" width="74" height="74" xlink:href="3E19D5C95C795B8F.png"  transform="matrix(1 0 0 1 -23 -21)">
		</image>
	</g>
	<g class="st2">
		
			<image style="overflow:visible;" width="74" height="74" xlink:href="3E19D5C95C795B92.png"  transform="matrix(1 0 0 1 -23 -19)">
		</image>
	</g>
	<g class="st2">
		
			<image style="overflow:visible;" width="74" height="75" xlink:href="3E19D5C95C795B93.png"  transform="matrix(1 0 0 1 -23 -18)">
		</image>
	</g>
	<g class="st2">
		
			<image style="overflow:visible;" width="75" height="75" xlink:href="3E19D5C95C795B95.png"  transform="matrix(1 0 0 1 -17 -23)">
		</image>
	</g>
	<g class="st2">
		
			<image style="overflow:visible;" width="74" height="75" xlink:href="3E19D5C95C795B97.png"  transform="matrix(1 0 0 1 -12 -18)">
		</image>
	</g>
	<g class="st2">
		
			<image style="overflow:visible;" width="75" height="74" xlink:href="3E19D5C95C795B90.png"  transform="matrix(1 0 0 1 -17 -21)">
		</image>
	</g>
	<g class="st2">
		
			<image style="overflow:visible;" width="74" height="74" xlink:href="3E19D5C95C795BB6.png"  transform="matrix(1 0 0 1 -23 -22)">
		</image>
	</g>
	<g class="st2">
		
			<image style="overflow:visible;" width="74" height="75" xlink:href="3E19D5C95C795BB5.png"  transform="matrix(1 0 0 1 -23 -21)">
		</image>
	</g>
	<g class="st2">
		
			<image style="overflow:visible;" width="74" height="74" xlink:href="3E19D5C95C795BB2.png"  transform="matrix(1 0 0 1 -23 -19)">
		</image>
	</g>
	<g class="st2">
		
			<image style="overflow:visible;" width="74" height="74" xlink:href="3E19D5C95C795BBD.png"  transform="matrix(1 0 0 1 -23 -17)">
		</image>
	</g>
	<g class="st2">
		
			<image style="overflow:visible;" width="74" height="74" xlink:href="3E19D5C95C795BBE.png"  transform="matrix(1 0 0 1 -18 -20)">
		</image>
	</g>
	<g class="st2">
		
			<image style="overflow:visible;" width="74" height="74" xlink:href="3E19D5C95C795BBC.png"  transform="matrix(1 0 0 1 -19 -21)">
		</image>
	</g>
	<g class="st2">
		
			<image style="overflow:visible;" width="74" height="74" xlink:href="3E19D5C95C795BB3.png"  transform="matrix(1 0 0 1 -25 -20)">
		</image>
	</g>
	<g class="st2">
		
			<image style="overflow:visible;" width="74" height="74" xlink:href="3E19D5C95C795BB4.png"  transform="matrix(1 0 0 1 -25 -18)">
		</image>
	</g>
	<g class="st2">
		
			<image style="overflow:visible;" width="74" height="75" xlink:href="3E19D5C95C795BB7.png"  transform="matrix(1 0 0 1 -25 -17)">
		</image>
	</g>
	<g class="st2">
		
			<image style="overflow:visible;" width="74" height="74" xlink:href="3E19D5C95C795B8B.png"  transform="matrix(1 0 0 1 -25 -15)">
		</image>
	</g>
	<g class="st2">
		
			<image style="overflow:visible;" width="74" height="74" xlink:href="3E19D5C95C795BD9.png"  transform="matrix(1 0 0 1 -19 -25)">
		</image>
	</g>
	<g class="st2">
		
			<image style="overflow:visible;" width="74" height="74" xlink:href="3E19D5C95C795BD7.png"  transform="matrix(1 0 0 1 -19 -23)">
		</image>
	</g>
	<g class="st2">
		
			<image style="overflow:visible;" width="74" height="74" xlink:href="3E19D5C95C795BE9.png"  transform="matrix(1 0 0 1 -19 -21)">
		</image>
	</g>
	<g class="st2">
		
			<image style="overflow:visible;" width="74" height="74" xlink:href="3E19D5C95C795BEB.png"  transform="matrix(1 0 0 1 -26 -19)">
		</image>
	</g>
	<g class="st2">
		
			<image style="overflow:visible;" width="74" height="74" xlink:href="3E19D5C95C795BE8.png"  transform="matrix(1 0 0 1 -20 -25)">
		</image>
	</g>
	<g class="st2">
		
			<image style="overflow:visible;" width="74" height="74" xlink:href="3E19D5C95C795BEF.png"  transform="matrix(1 0 0 1 -20 -23)">
		</image>
	</g>
	<g class="st2">
		
			<image style="overflow:visible;" width="74" height="74" xlink:href="3E19D5C95C795BEA.png"  transform="matrix(1 0 0 1 -20 -21)">
		</image>
	</g>
	<g class="st2">
		
			<image style="overflow:visible;" width="74" height="74" xlink:href="3E19D5C95C795BE6.png"  transform="matrix(1 0 0 1 -27 -19)">
		</image>
	</g>
	<g class="st2">
		
			<image style="overflow:visible;" width="74" height="74" xlink:href="3E19D5C95C795BE7.png"  transform="matrix(1 0 0 1 -12 -20)">
		</image>
	</g>
	<g class="st2">
		
			<image style="overflow:visible;" width="74" height="74" xlink:href="3E19D5C95C795BF7.png"  transform="matrix(1 0 0 1 -10 -17)">
		</image>
	</g>
	<g class="st2">
		<image style="overflow:visible;" width="75" height="75" xlink:href="3E19D5C95C795BC4.png"  transform="matrix(1 0 0 1 -9 -13)">
		</image>
	</g>
	<g class="st2">
		
			<image style="overflow:visible;" width="74" height="74" xlink:href="3E19D5C95C795BC7.png"  transform="matrix(1 0 0 1 -14 -19)">
		</image>
	</g>
	<g class="st2">
		
			<image style="overflow:visible;" width="74" height="74" xlink:href="3E19D5C95C795BC5.png"  transform="matrix(1 0 0 1 -15 -19)">
		</image>
	</g>
	<g class="st2">
		<image style="overflow:visible;" width="75" height="74" xlink:href="3E19D5C95C795BC3.png"  transform="matrix(1 0 0 1 -20 -8)">
		</image>
	</g>
	<g class="st2">
		<image style="overflow:visible;" width="74" height="74" xlink:href="3E19D5C95C795BDC.png"  transform="matrix(1 0 0 1 -20 -8)">
		</image>
	</g>
	<g class="st2">
		<image style="overflow:visible;" width="75" height="75" xlink:href="3E19D5C95C795BDF.png"  transform="matrix(1 0 0 1 -23 -9)">
		</image>
	</g>
	<g class="st2">
		<image style="overflow:visible;" width="74" height="74" xlink:href="3E19D5C95C795BDD.png"  transform="matrix(1 0 0 1 -24 -9)">
		</image>
	</g>
	<g class="st2">
		
			<image style="overflow:visible;" width="74" height="74" xlink:href="3E19D5C95C795BC2.png"  transform="matrix(1 0 0 1 -24 -10)">
		</image>
	</g>
	<g class="st2">
		<image style="overflow:visible;" width="74" height="75" xlink:href="3E19D5C95C795BC6.png"  transform="matrix(1 0 0 1 1 -26)">
		</image>
	</g>
	<g class="st2">
		<image style="overflow:visible;" width="74" height="75" xlink:href="3E19D5C95C795BC1.png"  transform="matrix(1 0 0 1 0 -21)">
		</image>
	</g>
	<g class="st2">
		<image style="overflow:visible;" width="74" height="74" xlink:href="3E19D5C95C795C23.png"  transform="matrix(1 0 0 1 -1 -20)">
		</image>
	</g>
	<g class="st2">
		<image style="overflow:visible;" width="74" height="74" xlink:href="3E19D5C95C795C21.png"  transform="matrix(1 0 0 1 2 -18)">
		</image>
	</g>
	<g class="st2">
		<image style="overflow:visible;" width="74" height="74" xlink:href="3E19D5C95C795C27.png"  transform="matrix(1 0 0 1 1 -18)">
		</image>
	</g>
	<g class="st2">
		<image style="overflow:visible;" width="74" height="74" xlink:href="3E19D5C95C795C22.png"  transform="matrix(1 0 0 1 -15 4)">
		</image>
	</g>
	<g class="st2">
		<image style="overflow:visible;" width="74" height="74" xlink:href="3E19D5C95C795C2D.png"  transform="matrix(1 0 0 1 -18 3)">
		</image>
	</g>
	<g class="st2">
		<image style="overflow:visible;" width="74" height="74" xlink:href="3E19D5C95C795C2E.png"  transform="matrix(1 0 0 1 -19 3)">
		</image>
	</g>
	<g class="st2">
		
			<image style="overflow:visible;" width="74" height="74" xlink:href="3E19D5C95C795C2F.png"  transform="matrix(1 0 0 1 -18 -16)">
		</image>
	</g>
	<g class="st2">
		
			<image style="overflow:visible;" width="74" height="75" xlink:href="3E19D5C95C795C24.png"  transform="matrix(1 0 0 1 -34 -24)">
		</image>
	</g>
</g>
<g id="Layer_8">
	<circle class="st6" cx="21.3" cy="21.3" r="20.3"/>
	<ellipse class="st7" cx="21.3" cy="21.3" rx="17.4" ry="17"/>
</g>
</svg>
